<?xml version="1.0" encoding="utf-8"?>
<!-- Generator: Adobe Illustrator 21.1.0, SVG Export Plug-In . SVG Version: 6.00 Build 0)  -->
<svg version="1.1" id="Layer_1" xmlns="http://www.w3.org/2000/svg" xmlns:xlink="http://www.w3.org/1999/xlink" x="0px" y="0px"
	 viewBox="0 0 264 280" style="enable-background:new 0 0 264 280;" xml:space="preserve">
<style type="text/css">
	.st0{fill:#FFFFFF;}
	.st1{fill:#E6E6E6;}
	.st2{fill:#2C3E50;}
	.st3{fill:#D0C6AC;}
	.st4{fill:#EDB98A;}
	.st5{fill-opacity:0.1;}
	.st6{opacity:0.6;}
	.st7{fill-opacity:0.16;}
	.st8{fill-opacity:0.7;}
	.st9{fill:#FF4F6D;}
	.st10{fill-opacity:0.6;}
	.st11{fill:#28354B;}
	.st12{fill:#4A312C;}
</style>
<g>
	<path id="react-path-926_1_" class="st0" d="M182.7,38.9c5.4-5,6.7-15,3.6-21.5c-3.8-8-11.4-9-18.7-5.5c-6.9,3.3-13.1,4.4-20.6,2.8
		c-7.3-1.5-14.1-4.3-21.6-4.7C113,9.3,101,13.9,92.6,23.1c-1.6,1.8-2.9,3.8-4.1,5.8c-1,1.6-2.1,3.4-2.5,5.3
		c-0.2,0.9,0.2,3.1-0.3,3.8c-0.5,0.8-2.3,1.5-3.1,2.1c-1.6,1.2-2.9,2.5-4.2,4c-2.7,3.2-4.1,6.6-5.4,10.6c-4.1,13.2-4.5,29,0.9,42
		c0.7,1.7,2.9,5.4,4.2,1.6c0.3-0.7-0.3-3.2-0.3-3.9c0-2.7,1.5-20.7,8-30.8c2.1-3.3,12-15.6,14-15.7c1.1,1.7,11.9,12.5,39.9,11.2
		c12.7-0.6,22.4-6.3,24.7-8.7c1,5.5,13,13.8,14.8,17.2c5.3,9.8,6.4,30.3,8.4,30.3s3.5-5.2,3.9-6.2c3.1-7.4,3.6-16.6,3.3-24.6
		C194.5,57,190.3,45.9,182.7,38.9z"/>
</g>
<g>
	<rect id="react-path-927_1_" class="st0" width="264" height="280"/>
</g>
<g>
	<path id="react-path-933_2_" class="st0" d="M113.1,149.1c1.1,9.5,9.1,16.9,18.9,16.9s17.9-7.4,18.9-17c0.1-0.8-0.8-2-1.8-2
		c-14.9,0-26.3,0-34,0C114,147,113,148.2,113.1,149.1z"/>
</g>
<g>
	<path id="react-path-933_1_" class="st0" d="M113.1,149.1c1.1,9.5,9.1,16.9,18.9,16.9s17.9-7.4,18.9-17c0.1-0.8-0.8-2-1.8-2
		c-14.9,0-26.3,0-34,0C114,147,113,148.2,113.1,149.1z"/>
</g>
<g>
	<path id="react-path-951_2_" class="st0" d="M166,199.3c37,3,66,34,66,71.8v8.9H32v-8.9c0-38.1,29.6-69.3,67-71.9
		c0,0.4,0,0.7,0,1.1c0,11.9,15,21.5,33.5,21.5s33.5-9.6,33.5-21.5C166,200,166,199.6,166,199.3z"/>
</g>
<g>
	<path id="react-path-951_1_" class="st0" d="M166,199.3c37,3,66,34,66,71.8v8.9H32v-8.9c0-38.1,29.6-69.3,67-71.9
		c0,0.4,0,0.7,0,1.1c0,11.9,15,21.5,33.5,21.5s33.5-9.6,33.5-21.5C166,200,166,199.6,166,199.3z"/>
</g>
<g>
	<path id="path-5_2_" class="st0" d="M156,180.6V199h4l0,0c39.8,0,72,32.2,72,72v9H32v-9c0-39.8,32.2-72,72-72l0,0h4v-18.4
		c-17.2-8.2-29.6-24.9-31.7-44.7C70.5,135.1,66,130.1,66,124v-14c0-5.9,4.3-10.9,10-11.8V92l0,0c0-30.9,25.1-56,56-56l0,0l0,0
		c30.9,0,56,25.1,56,56v6.2c5.7,1,10,5.9,10,11.8v14c0,6.1-4.5,11.1-10.3,11.9C185.6,155.7,173.2,172.4,156,180.6z"/>
</g>
<g>
	<path id="path-5_1_" class="st0" d="M156,180.6V199h4l0,0c39.8,0,72,32.2,72,72v9H32v-9c0-39.8,32.2-72,72-72l0,0h4v-18.4
		c-17.2-8.2-29.6-24.9-31.7-44.7C70.5,135.1,66,130.1,66,124v-14c0-5.9,4.3-10.9,10-11.8V92l0,0c0-30.9,25.1-56,56-56l0,0l0,0
		c30.9,0,56,25.1,56,56v6.2c5.7,1,10,5.9,10,11.8v14c0,6.1-4.5,11.1-10.3,11.9C185.6,155.7,173.2,172.4,156,180.6z"/>
</g>
<g>
	<path id="path-3_1_" class="st0" d="M12,160c0,66.3,53.7,120,120,120s120-53.7,120-120h12V0H0v160H12z"/>
</g>
<g>
	<circle id="path-1_1_" class="st0" cx="132" cy="160" r="120"/>
</g>
<desc>Created with getavataaars.com</desc>
<g>
	<g transform="translate(-825.000000, -1100.000000)">
		<g transform="translate(825.000000, 1100.000000)">
			<g id="Circle" transform="translate(12.000000, 40.000000)">
				<g id="Circle-Background">
					<circle class="st1" cx="120" cy="120" r="120"/>
				</g>
				<g>
					<rect class="st2" width="240" height="240"/>
				</g>
			</g>
			<g id="Mask">
			</g>
			<g id="Avataaar">
				<g id="Body" transform="translate(32.000000, 36.000000)">
					<g>
						<path class="st3" d="M124,144.6V163h4l0,0c39.8,0,72,32.2,72,72v9H0v-9c0-39.8,32.2-72,72-72l0,0h4v-18.4
							c-17.2-8.2-29.6-24.9-31.7-44.7C38.5,99.1,34,94.1,34,88V74c0-5.9,4.3-10.9,10-11.8V56l0,0c0-30.9,25.1-56,56-56l0,0l0,0
							c30.9,0,56,25.1,56,56v6.2c5.7,1,10,5.9,10,11.8v14c0,6.1-4.5,11.1-10.3,11.9C153.6,119.7,141.2,136.4,124,144.6z"/>
					</g>
					<g>
						<g id="Color" transform="translate(-32.000000, 0.000000)">
							<rect class="st4" width="264" height="244"/>
						</g>
					</g>
					<path id="Neck-Shadow" class="st5" d="M156,79v23c0,30.9-25.1,56-56,56s-56-25.1-56-56V79v15c0,30.9,25.1,56,56,56
						s56-25.1,56-56V79z"/>
				</g>
				<g transform="translate(0.000000, 170.000000)">
					<g id="Clothes">
						<path class="st1" d="M166,29.3c37,3,66,34,66,71.8v8.9H32v-8.9C32,63,61.6,31.8,99,29.2c0,0.4,0,0.7,0,1.1
							c0,11.9,15,21.5,33.5,21.5S166,42.2,166,30.3C166,30,166,29.6,166,29.3z"/>
					</g>
					<g>
						<rect class="st0" width="264" height="110"/>
					</g>
					<g id="Shadowy" class="st6">
						<g transform="translate(92.000000, 4.000000)">
							<ellipse class="st7" cx="40.5" cy="27.8" rx="39.6" ry="26.9"/>
						</g>
					</g>
				</g>
				<g id="Face" transform="translate(76.000000, 82.000000)">
					<g transform="translate(2.000000, 52.000000)">
						<g id="Mouth">
							<path class="st8" d="M35.1,15.1C36.2,24.6,44.2,32,54,32s17.9-7.4,18.9-17c0.1-0.8-0.8-2-1.8-2c-14.9,0-26.3,0-34,0
								C36,13,35,14.2,35.1,15.1z"/>
						</g>
						<path id="Teeth" class="st0" d="M44,2h21c2.8,0,5,2.2,5,5v6c0,2.8-2.2,5-5,5H44c-2.8,0-5-2.2-5-5V7C39,4.2,41.2,2,44,2z"/>
						<g id="Tongue">
							<g transform="translate(38.000000, 24.000000)">
								<circle class="st9" cx="11" cy="11" r="11"/>
								<circle class="st9" cx="21" cy="11" r="11"/>
							</g>
						</g>
					</g>
					<g transform="translate(28.000000, 40.000000)">
						<path id="Nose" class="st7" d="M16,8c0,4.4,5.4,8,12,8l0,0c6.6,0,12-3.6,12-8"/>
					</g>
					<g transform="translate(0.000000, 8.000000)">
						<path id="Squint" class="st10" d="M16.2,22.4C18,18.6,22.2,16,27,16s9,2.6,10.8,6.4c0.6,1.1-0.2,2-1,1.4
							c-2.5-2.1-5.9-3.4-9.8-3.4c-3.7,0-7.1,1.2-9.6,3.2C16.5,24.3,15.6,23.6,16.2,22.4z"/>
						<path class="st10" d="M74.2,22.4C76,18.6,80.2,16,85,16s9,2.6,10.8,6.4c0.6,1.1-0.2,2-1,1.4c-2.5-2.1-5.9-3.4-9.8-3.4
							c-3.7,0-7.1,1.2-9.6,3.2C74.5,24.3,73.6,23.6,74.2,22.4z"/>
					</g>
					<g>
						<path id="Eyebrow" class="st10" d="M26.5,6.1c-5.8,0.3-15.2,4.5-15,10.3c0,0.2,0.3,0.3,0.4,0.1c2.8-3,22.3-5.9,29.2-4.4
							c0.6,0.1,1.1-0.5,0.7-0.9C38.5,7.5,31.7,5.9,26.5,6.1"/>
						<path class="st10" d="M86.5,6.1c5.8,0.3,15.2,4.5,15,10.3c0,0.2-0.3,0.3-0.4,0.1c-2.8-3-22.3-5.9-29.2-4.4
							c-0.6,0.1-1.1-0.5-0.7-0.9C74.5,7.5,81.3,5.9,86.5,6.1"/>
					</g>
				</g>
				<g id="Top">
					<g>
						<g transform="translate(-1.000000, 0.000000)">
							<g id="Short-Hair">
								<path class="st11" d="M183.7,38.9c5.4-5,6.7-15,3.6-21.5c-3.8-8-11.4-9-18.7-5.5c-6.9,3.3-13.1,4.4-20.6,2.8
									c-7.3-1.5-14.1-4.3-21.6-4.7C114,9.3,102,13.9,93.6,23.1c-1.6,1.8-2.9,3.8-4.1,5.8c-1,1.6-2.1,3.4-2.5,5.3
									c-0.2,0.9,0.2,3.1-0.3,3.8c-0.5,0.8-2.3,1.5-3.1,2.1c-1.6,1.2-2.9,2.5-4.2,4c-2.7,3.2-4.1,6.6-5.4,10.6
									c-4.1,13.2-4.5,29,0.9,42c0.7,1.7,2.9,5.4,4.2,1.6c0.3-0.7-0.3-3.2-0.3-3.9c0-2.7,1.5-20.7,8-30.8c2.1-3.3,12-15.6,14-15.7
									c1.1,1.7,11.9,12.5,39.9,11.2c12.7-0.6,22.4-6.3,24.7-8.7c1,5.5,13,13.8,14.8,17.2c5.3,9.8,6.4,30.3,8.4,30.3
									s3.5-5.2,3.9-6.2c3.1-7.4,3.6-16.6,3.3-24.6C195.5,57,191.3,45.9,183.7,38.9z"/>
							</g>
							<g>
								<g transform="translate(0.000000, 0.000000) ">
									<rect class="st12" width="264" height="280"/>
								</g>
							</g>
						</g>
					</g>
				</g>
			</g>
		</g>
	</g>
	<g id="IN9cQ1.tif">
		
			<image style="overflow:visible;" width="900" height="750" id="Layer_0_1_" xlink:href="949AED03CE85311B.png"  transform="matrix(0.4261 0 0 0.4261 -59.7462 -3.2885)">
		</image>
	</g>
</g>
</svg>
